<svg xmlns="http://www.w3.org/2000/svg" viewBox="0 0 32 32" role="img" aria-label="Shivers">
  <defs>
    <linearGradient id="g" x1="0%" y1="0%" x2="100%" y2="100%">
      <stop offset="0%" stop-color="#e9d5ff"/>
      <stop offset="45%" stop-color="#c084fc"/>
      <stop offset="100%" stop-color="#22d3ee"/>
    </linearGradient>
  </defs>
  <rect width="32" height="32" rx="7" fill="#0a0612"/>
  <path
    fill="url(#g)"
    transform="translate(32 0) scale(-1 1)"
    d="M22.2 7.2c-1.8-1.4-4.1-2-6.5-1.6-2.2.4-4 1.6-5 3.4l2.2 1.2c.7-1.2 1.9-2 3.3-2.2 1.8-.3 3.5.3 4.6 1.5 1 1.1 1.2 2.7.4 4-.6 1-1.7 1.7-3 1.9l-3.5.6c-2.4.4-4.2 2.2-4.6 4.6-.5 2.8 1.5 5.4 4.3 5.9 2.6.5 5.2-.5 6.8-2.5l-2.1-1.5c-1 .9-2.3 1.4-3.7 1.2-1.4-.2-2.5-1.2-2.8-2.5-.3-1.4.5-2.8 1.8-3.2l3.6-.7c2.5-.5 4.4-2.5 4.9-5 .6-3.1-1.2-6.1-4.1-7.1z"
  />
</svg>
